<svg viewBox="0 0 47.3164 40.5571" xmlns="http://www.w3.org/2000/svg" xmlns:xlink="http://www.w3.org/1999/xlink" width="47.316406" height="40.557129" fill="none" customFrame="#000000">
	<path id="Vector" d="M42.2468 8.44937L37.1772 8.44937L37.1772 3.37975C37.1772 2.48338 36.8211 1.62373 36.1873 0.989905C35.5535 0.356079 34.6938 2.25136e-15 33.7975 0L13.519 0C12.6226 1.50091e-15 11.763 0.356079 11.1291 0.989905C10.4953 1.62373 10.1392 2.48338 10.1392 3.37975L10.1392 8.44937L5.06962 8.44937C3.72507 8.44937 2.4356 8.98349 1.48486 9.93422C0.534119 10.885 1.50091e-15 12.1744 0 13.519L0 37.1772C7.50455e-16 38.0736 0.356079 38.9332 0.989905 39.5671C1.62373 40.2009 2.48338 40.557 3.37975 40.557L43.9367 40.557C44.8331 40.557 45.6927 40.2009 46.3265 39.5671C46.9604 38.9332 47.3165 38.0736 47.3165 37.1772L47.3165 13.519C47.3165 12.1744 46.7823 10.885 45.8316 9.93422C44.8809 8.98349 43.5914 8.44937 42.2468 8.44937ZM13.519 3.37975L33.7975 3.37975L33.7975 8.44937L13.519 8.44937L13.519 3.37975ZM43.9367 37.1772L3.37975 37.1772L3.37975 21.9684L16.8987 21.9684L16.8987 30.4177L30.4177 30.4177L30.4177 21.9684L43.9367 21.9684L43.9367 37.1772ZM20.2785 21.9684L27.038 21.9684L27.038 27.038L20.2785 27.038L20.2785 21.9684ZM3.37975 18.5886L3.37975 13.519C3.37975 13.0708 3.55779 12.641 3.8747 12.3241C4.19161 12.0072 4.62144 11.8291 5.06962 11.8291L42.2468 11.8291C42.695 11.8291 43.1248 12.0072 43.4418 12.3241C43.7587 12.641 43.9367 13.0708 43.9367 13.519L43.9367 18.5886L3.37975 18.5886Z" fill="rgb(13,92,99)" fill-rule="nonzero" />
</svg>
